{
  "accessors": [
    {
      "bufferView": 2,
      "componentType": 5126,
      "count": 2142,
      "max": [
        8.628100395202637,
        6.61959981918335,
        22.524799346923828
      ],
      "min": [
        -8.761899948120117,
        -10.770400047302246,
        4.814000129699707
      ],
      "type": "VEC3"
    },
    {
      "bufferView": 2,
      "byteOffset": 25704,
      "componentType": 5126,
      "count": 2142,
      "max": [
        0.9999969005584717,
        0.9999969005584717,
        0.9999812841415405
      ],
      "min": [
        -0.9999969005584717,
        -0.9999969005584717,
        -1.0
      ],
      "type": "VEC3"
    },
    {
      "bufferView": 1,
      "componentType": 5126,
      "count": 2142,
      "max": [
        0.9642999768257141,
        0.9800000190734863
      ],
      "min": [
        0.019999999552965164,
        0.019999999552965164
      ],
      "type": "VEC2"
    },
    {
      "bufferView": 0,
      "componentType": 5125,
      "count": 10176,
      "type": "SCALAR"
    },
    {
      "bufferView": 2,
      "byteOffset": 51408,
      "componentType": 5126,
      "count": 45,
      "max": [
        4.72130012512207,
        7.524199962615967,
        20.776899337768555
      ],
      "min": [
        -9.667400360107422,
        -11.67590045928955,
        7.9120001792907715
      ],
      "type": "VEC3"
    },
    {
      "bufferView": 2,
      "byteOffset": 51948,
      "componentType": 5126,
      "count": 45,
      "max": [
        0.3803081810474396,
        0.9910991787910461,
        0.00870038103312254
      ],
      "min": [
        -0.9999966621398926,
        -0.9999966621398926,
        0.0025999026838690042
      ],
      "type": "VEC3"
    },
    {
      "bufferView": 1,
      "byteOffset": 17136,
      "componentType": 5126,
      "count": 45,
      "max": [
        0.9800000190734863,
        0.30469998717308044
      ],
      "min": [
        0.019899999722838402,
        0.019999999552965164
      ],
      "type": "VEC2"
    },
    {
      "bufferView": 0,
      "byteOffset": 40704,
      "componentType": 5125,
      "count": 168,
      "type": "SCALAR"
    },
    {
      "bufferView": 2,
      "byteOffset": 52488,
      "componentType": 5126,
      "count": 45,
      "max": [
        4.702300071716309,
        7.474699974060059,
        20.77630043029785
      ],
      "min": [
        -9.617400169372559,
        -11.625900268554688,
        7.911799907684326
      ],
      "type": "VEC3"
    },
    {
      "bufferView": 2,
      "byteOffset": 53028,
      "componentType": 5126,
      "count": 45,
      "max": [
        0.3804064989089966,
        0.9911256432533264,
        0.008700155653059483
      ],
      "min": [
        -0.9999966621398926,
        -0.9999966621398926,
        0.0025999913923442364
      ],
      "type": "VEC3"
    },
    {
      "bufferView": 1,
      "byteOffset": 17496,
      "componentType": 5126,
      "count": 45,
      "max": [
        0.9800000190734863,
        0.30469998717308044
      ],
      "min": [
        0.019999999552965164,
        0.019999999552965164
      ],
      "type": "VEC2"
    },
    {
      "bufferView": 0,
      "byteOffset": 41376,
      "componentType": 5125,
      "count": 168,
      "type": "SCALAR"
    },
    {
      "bufferView": 2,
      "byteOffset": 53568,
      "componentType": 5126,
      "count": 75,
      "max": [
        9.344300270080566,
        6.212900161743164,
        27.136699676513672
      ],
      "min": [
        1.8772000074386597,
        -6.7729997634887695,
        7.405300140380859
      ],
      "type": "VEC3"
    },
    {
      "bufferView": 2,
      "byteOffset": 54468,
      "componentType": 5126,
      "count": 75,
      "max": [
        0.9678564667701721,
        0.79178786277771,
        0.8846325874328613
      ],
      "min": [
        0.29028958082199097,
        -0.36840584874153137,
        0.002599888714030385
      ],
      "type": "VEC3"
    },
    {
      "bufferView": 1,
      "byteOffset": 17856,
      "componentType": 5126,
      "count": 75,
      "max": [
        0.9991000294685364,
        0.9902999997138977
      ],
      "min": [
        0.009600000455975533,
        0.0005000000237487257
      ],
      "type": "VEC2"
    },
    {
      "bufferView": 0,
      "byteOffset": 42048,
      "componentType": 5125,
      "count": 324,
      "type": "SCALAR"
    },
    {
      "bufferView": 2,
      "byteOffset": 55368,
      "componentType": 5126,
      "count": 623,
      "max": [
        7.318900108337402,
        3.9238998889923096,
        18.163400650024414
      ],
      "min": [
        -6.406400203704834,
        -8.976900100708008,
        7.773099899291992
      ],
      "type": "VEC3"
    },
    {
      "bufferView": 2,
      "byteOffset": 62844,
      "componentType": 5126,
      "count": 623,
      "max": [
        1.0,
        1.0,
        1.0
      ],
      "min": [
        -1.0,
        -1.0,
        -1.0
      ],
      "type": "VEC3"
    },
    {
      "bufferView": 1,
      "byteOffset": 18456,
      "componentType": 5126,
      "count": 623,
      "max": [
        1.0,
        1.0
      ],
      "min": [
        0.0,
        0.0
      ],
      "type": "VEC2"
    },
    {
      "bufferView": 0,
      "byteOffset": 43344,
      "componentType": 5125,
      "count": 2520,
      "type": "SCALAR"
    },
    {
      "bufferView": 2,
      "byteOffset": 70320,
      "componentType": 5126,
      "count": 2298,
      "max": [
        9.439499855041504,
        7.431099891662598,
        35.21659851074219
      ],
      "min": [
        -9.573399543762207,
        -11.581899642944336,
        4.440199851989746
      ],
      "type": "VEC3"
    },
    {
      "bufferView": 2,
      "byteOffset": 97896,
      "componentType": 5126,
      "count": 2298,
      "max": [
        1.0,
        1.0,
        1.0
      ],
      "min": [
        -1.0,
        -1.0,
        -1.0
      ],
      "type": "VEC3"
    },
    {
      "bufferView": 1,
      "byteOffset": 23440,
      "componentType": 5126,
      "count": 2298,
      "max": [
        0.9991999864578247,
        0.9994999766349792
      ],
      "min": [
        0.0005000000237487257,
        0.0005000000237487257
      ],
      "type": "VEC2"
    },
    {
      "bufferView": 0,
      "byteOffset": 53424,
      "componentType": 5125,
      "count": 10896,
      "type": "SCALAR"
    },
    {
      "bufferView": 2,
      "byteOffset": 125472,
      "componentType": 5126,
      "count": 71,
      "max": [
        2.9172000885009766,
        0.9088000059127808,
        37.7494010925293
      ],
      "min": [
        -3.051100015640259,
        -5.059700012207031,
        31.479000091552734
      ],
      "type": "VEC3"
    },
    {
      "bufferView": 2,
      "byteOffset": 126324,
      "componentType": 5126,
      "count": 71,
      "max": [
        0.9840120077133179,
        0.9840120077133179,
        1.0
      ],
      "min": [
        -0.9840120077133179,
        -0.9840120077133179,
        -1.0
      ],
      "type": "VEC3"
    },
    {
      "bufferView": 1,
      "byteOffset": 41824,
      "componentType": 5126,
      "count": 71,
      "max": [
        1.0,
        1.0166000127792358
      ],
      "min": [
        -0.0,
        -0.016599999740719795
      ],
      "type": "VEC2"
    },
    {
      "bufferView": 0,
      "byteOffset": 97008,
      "componentType": 5125,
      "count": 246,
      "type": "SCALAR"
    }
  ],
  "asset": {
    "extras": {
      "author": "Studio Sazor (https://sketchfab.com/studiosazor)",
      "license": "CC-BY-4.0 (http://creativecommons.org/licenses/by/4.0/)",
      "source": "https://sketchfab.com/3d-models/poison-glass-bottle-91f700845d5c45b482273a91983d1183",
      "title": "POISON GLASS BOTTLE"
    },
    "generator": "Sketchfab-12.68.0",
    "version": "2.0"
  },
  "bufferViews": [
    {
      "buffer": 0,
      "byteLength": 97992,
      "name": "floatBufferViews",
      "target": 34963
    },
    {
      "buffer": 0,
      "byteLength": 42392,
      "byteOffset": 97992,
      "byteStride": 8,
      "name": "floatBufferViews",
      "target": 34962
    },
    {
      "buffer": 0,
      "byteLength": 127176,
      "byteOffset": 140384,
      "byteStride": 12,
      "name": "floatBufferViews",
      "target": 34962
    }
  ],
  "buffers": [
    {
      "byteLength": 267560,
      "uri": "scene.bin"
    }
  ],
  "extensionsUsed": [
    "KHR_materials_transmission"
  ],
  "images": [
    {
      "uri": "textures/Material__29_baseColor.jpeg"
    },
    {
      "uri": "textures/Material__29_metallicRoughness.png"
    },
    {
      "uri": "textures/Material__30_baseColor.png"
    },
    {
      "uri": "textures/Material__30_metallicRoughness.png"
    },
    {
      "uri": "textures/Material__34_baseColor.png"
    }
  ],
  "materials": [
    {
      "doubleSided": true,
      "emissiveFactor": [
        1.0,
        1.0,
        1.0
      ],
      "name": "Material__25",
      "pbrMetallicRoughness": {
        "metallicFactor": 0.0,
        "roughnessFactor": 0.6
      }
    },
    {
      "alphaMode": "BLEND",
      "doubleSided": true,
      "name": "Material__26",
      "pbrMetallicRoughness": {
        "baseColorFactor": [
          0.2316475345,
          0.0,
          1.0,
          0.7168181911
        ],
        "roughnessFactor": 0.6
      }
    },
    {
      "alphaMode": "BLEND",
      "doubleSided": true,
      "extensions": {
        "KHR_materials_transmission": {
          "transmissionFactor": 1.0
        }
      },
      "name": "Material__28",
      "pbrMetallicRoughness": {
        "baseColorFactor": [
          1.0,
          1.0,
          1.0,
          0.25
        ],
        "metallicFactor": 0.0,
        "roughnessFactor": 0.0
      }
    },
    {
      "doubleSided": true,
      "name": "Material__29",
      "pbrMetallicRoughness": {
        "baseColorFactor": [
          0.2986363728841146,
          0.2986363728841146,
          0.2986363728841146,
          1.0
        ],
        "baseColorTexture": {
          "index": 0
        },
        "metallicRoughnessTexture": {
          "index": 1
        },
        "roughnessFactor": 0.6
      }
    },
    {
      "doubleSided": true,
      "name": "Material__30",
      "pbrMetallicRoughness": {
        "baseColorTexture": {
          "index": 2
        },
        "metallicFactor": 0.6259091002,
        "metallicRoughnessTexture": {
          "index": 3
        },
        "roughnessFactor": 0.6
      }
    },
    {
      "doubleSided": true,
      "name": "Material__31",
      "pbrMetallicRoughness": {
        "baseColorFactor": [
          0.1515700629,
          0.1250687416,
          0.1029353227,
          1.0
        ],
        "metallicFactor": 0.0,
        "roughnessFactor": 0.6
      }
    },
    {
      "alphaMode": "BLEND",
      "doubleSided": true,
      "name": "Material__34",
      "pbrMetallicRoughness": {
        "baseColorTexture": {
          "index": 4
        },
        "metallicFactor": 0.0,
        "roughnessFactor": 0.6
      }
    }
  ],
  "meshes": [
    {
      "name": "Object_0",
      "primitives": [
        {
          "attributes": {
            "NORMAL": 1,
            "POSITION": 0,
            "TEXCOORD_0": 2
          },
          "indices": 3,
          "material": 1,
          "mode": 4
        }
      ]
    },
    {
      "name": "Object_1",
      "primitives": [
        {
          "attributes": {
            "NORMAL": 5,
            "POSITION": 4,
            "TEXCOORD_0": 6
          },
          "indices": 7,
          "material": 4,
          "mode": 4
        }
      ]
    },
    {
      "name": "Object_2",
      "primitives": [
        {
          "attributes": {
            "NORMAL": 9,
            "POSITION": 8,
            "TEXCOORD_0": 10
          },
          "indices": 11,
          "material": 5,
          "mode": 4
        }
      ]
    },
    {
      "name": "Object_3",
      "primitives": [
        {
          "attributes": {
            "NORMAL": 13,
            "POSITION": 12,
            "TEXCOORD_0": 14
          },
          "indices": 15,
          "material": 6,
          "mode": 4
        }
      ]
    },
    {
      "name": "Object_4",
      "primitives": [
        {
          "attributes": {
            "NORMAL": 17,
            "POSITION": 16,
            "TEXCOORD_0": 18
          },
          "indices": 19,
          "material": 0,
          "mode": 4
        }
      ]
    },
    {
      "name": "Object_5",
      "primitives": [
        {
          "attributes": {
            "NORMAL": 21,
            "POSITION": 20,
            "TEXCOORD_0": 22
          },
          "indices": 23,
          "material": 2,
          "mode": 4
        }
      ]
    },
    {
      "name": "Object_6",
      "primitives": [
        {
          "attributes": {
            "NORMAL": 25,
            "POSITION": 24,
            "TEXCOORD_0": 26
          },
          "indices": 27,
          "material": 3,
          "mode": 4
        }
      ]
    }
  ],
  "nodes": [
    {
      "children": [
        1
      ],
      "matrix": [
        1.0,
        0.0,
        0.0,
        0.0,
        0.0,
        2.220446049250313e-16,
        -1.0,
        0.0,
        0.0,
        1.0,
        2.220446049250313e-16,
        0.0,
        0.0,
        0.0,
        0.0,
        1.0
      ],
      "name": "Sketchfab_model"
    },
    {
      "children": [
        2,
        3,
        4,
        5,
        6,
        7,
        8
      ],
      "name": "BOTELLITA.obj.cleaner.materialmerger.gles"
    },
    {
      "mesh": 0,
      "name": "Object_2"
    },
    {
      "mesh": 1,
      "name": "Object_3"
    },
    {
      "mesh": 2,
      "name": "Object_4"
    },
    {
      "mesh": 3,
      "name": "Object_5"
    },
    {
      "mesh": 4,
      "name": "Object_6"
    },
    {
      "mesh": 5,
      "name": "Object_7"
    },
    {
      "mesh": 6,
      "name": "Object_8"
    }
  ],
  "samplers": [
    {
      "magFilter": 9729,
      "minFilter": 9987,
      "wrapS": 10497,
      "wrapT": 10497
    }
  ],
  "scene": 0,
  "scenes": [
    {
      "name": "Sketchfab_Scene",
      "nodes": [
        0
      ]
    }
  ],
  "textures": [
    {
      "sampler": 0,
      "source": 0
    },
    {
      "sampler": 0,
      "source": 1
    },
    {
      "sampler": 0,
      "source": 2
    },
    {
      "sampler": 0,
      "source": 3
    },
    {
      "sampler": 0,
      "source": 4
    }
  ]
}
